# xmcd
#
# Track frame offsets:
#	150
#	18469
#	33492
#	50134
#	68726
#	80436
#	104094
#	119391
#	135244
#	147162
#	168900
#	181194
#	196449
#
# Disc length: 2788 seconds
#
# Revision: 1
# Processed by: cddbd v1.5.2PL0 Copyright (c) Steve Scherf et al.
# Submitted via: audiograbber 1.83.01
#
DISCID=b40ae20d
DTITLE=Monica West - Storm gaat voorbij
DYEAR=1900
DGENRE=NL-country
TTITLE0=Storm gaat voorbij
TTITLE1=Klatergoud
TTITLE2=Het zit me tot hier
TTITLE3=Nooit meer
TTITLE4='k Meen het echt niet
TTITLE5=Ons huis
TTITLE6=Een goeie smoes
TTITLE7=Samen apart
TTITLE8=Komt tijd, komt raad
TTITLE9=Driemaal levenslang
TTITLE10=De sleur
TTITLE11=Liefde tussen man en vrouw
TTITLE12=Vaarwel voor papa
EXTD=
EXTT0=
EXTT1=
EXTT2=
EXTT3=
EXTT4=
EXTT5=
EXTT6=
EXTT7=
EXTT8=
EXTT9=
EXTT10=
EXTT11=
EXTT12=
PLAYORDER=
